
<svg xmlns="http://www.w3.org/2000/svg" style="display:none" aria-hidden="true">
  <defs>
    
  </defs>

  

  
  <symbol id="di-vegan" viewBox="0 0 24 24">
    <path d="M4 20c0-7 5-12 12-13 .5 5-2 12-9 13-2 .3-3-0-3-0z"></path>
    <path d="M4 20c2-3 5-6 9-8"></path>
  </symbol>

  
  <symbol id="di-vegetarian" viewBox="0 0 24 24">
    <path d="M5 19c0-8 6-14 14-14 0 8-6 14-14 14z"></path>
    <path d="M5 19c3-3 6-6 9-8"></path>
  </symbol>

  
  <symbol id="di-pescatarian" viewBox="0 0 24 24">
    <path d="M3 12c2-4 6-6 11-6 3 0 5 1 7 3-2 2-4 3-7 3-5 0-9-2-11-0z"></path>
    <path d="M14 6c-1 2-1 4 0 6"></path>
    <circle cx="17" cy="9" r="0.6" class="fill"></circle>
  </symbol>

  
  <symbol id="di-halal" viewBox="0 0 24 24">
    <path d="M16 4a8 8 0 1 0 4 14 6.5 6.5 0 0 1-4-14z"></path>
  </symbol>

  
  <symbol id="di-kosher" viewBox="0 0 24 24">
    <path d="M12 3l8 14H4z"></path>
    <path d="M12 21L4 7h16z"></path>
  </symbol>

  

  
  <symbol id="di-gluten-free" viewBox="0 0 24 24">
    <path d="M12 4v16"></path>
    <path d="M12 8c-2-1-4-1-5 0 1 2 3 3 5 2"></path>
    <path d="M12 8c2-1 4-1 5 0-1 2-3 3-5 2"></path>
    <path d="M12 13c-2-1-4-1-5 0 1 2 3 3 5 2"></path>
    <path d="M12 13c2-1 4-1 5 0-1 2-3 3-5 2"></path>
    <line x1="5" y1="19" x2="19" y2="5"></line>
  </symbol>

  
  <symbol id="di-dairy-free" viewBox="0 0 24 24">
    <path d="M12 4c-3 4-5 7-5 10a5 5 0 0 0 10 0c0-3-2-6-5-10z"></path>
    <line x1="5" y1="19" x2="19" y2="5"></line>
  </symbol>

  
  <symbol id="di-nut-free" viewBox="0 0 24 24">
    <path d="M9 4c-2 0-4 2-4 4 0 2 1 3 1 5s-1 3-1 4c0 2 2 3 4 3 1 0 2-1 3-2 1 1 2 2 3 2 2 0 4-1 4-3 0-1-1-2-1-4s1-3 1-5c0-2-2-4-4-4-1 0-2 1-3 2-1-1-2-2-3-2z"></path>
    <line x1="5" y1="19" x2="19" y2="5"></line>
  </symbol>

  
  <symbol id="di-soy-free" viewBox="0 0 24 24">
    <path d="M5 14c0-5 4-9 9-9 3 0 5 1 5 4 0 5-4 9-9 9-3 0-5-1-5-4z"></path>
    <circle cx="10" cy="12" r="1.2" class="fill"></circle>
    <circle cx="14" cy="9" r="1.2" class="fill"></circle>
    <line x1="5" y1="19" x2="19" y2="5"></line>
  </symbol>

  
  <symbol id="di-egg-free" viewBox="0 0 24 24">
    <ellipse cx="12" cy="13" rx="6" ry="8"></ellipse>
    <line x1="5" y1="19" x2="19" y2="5"></line>
  </symbol>

  
  <symbol id="di-shellfish-free" viewBox="0 0 24 24">
    <path d="M5 16c0-4 3-7 7-7 4 0 7 3 7 7"></path>
    <path d="M7 16h10"></path>
    <path d="M9 16v3M12 16v3M15 16v3"></path>
    <line x1="5" y1="19" x2="19" y2="5"></line>
  </symbol>

  
  <symbol id="di-msg-free" viewBox="0 0 24 24">
    <text x="4" y="16" font-family="ui-monospace, monospace" font-size="9" font-weight="700" class="fill">MSG</text>
    <line x1="4" y1="19" x2="20" y2="5"></line>
  </symbol>

  

  
  <symbol id="di-contains-nuts" viewBox="0 0 24 24">
    <path d="M12 4l9 16H3z"></path>
    <ellipse cx="12" cy="14" rx="2.2" ry="3"></ellipse>
    <path d="M12 11v6"></path>
  </symbol>

  
  <symbol id="di-contains-dairy" viewBox="0 0 24 24">
    <path d="M12 4l9 16H3z"></path>
    <path d="M12 10c-1.5 2-2.5 3.5-2.5 5a2.5 2.5 0 0 0 5 0c0-1.5-1-3-2.5-5z"></path>
  </symbol>

  
  <symbol id="di-contains-shellfish" viewBox="0 0 24 24">
    <path d="M12 4l9 16H3z"></path>
    <path d="M8 16c0-2 1.8-3.5 4-3.5s4 1.5 4 3.5"></path>
    <path d="M9 16h6"></path>
  </symbol>

  
  <symbol id="di-contains-egg" viewBox="0 0 24 24">
    <path d="M12 4l9 16H3z"></path>
    <ellipse cx="12" cy="14" rx="2.5" ry="3.5"></ellipse>
  </symbol>

  
  <symbol id="di-contains-soy" viewBox="0 0 24 24">
    <path d="M12 4l9 16H3z"></path>
    <path d="M9 15c0-1.5 1.3-2.8 3-2.8s3 1.3 3 2.8c0 1.5-1.3 2.8-3 2.8s-3-1.3-3-2.8z"></path>
    <circle cx="11" cy="15" r="0.6" class="fill"></circle>
    <circle cx="13" cy="15" r="0.6" class="fill"></circle>
  </symbol>

  
  <symbol id="di-contains-sesame" viewBox="0 0 24 24">
    <path d="M12 4l9 16H3z"></path>
    <ellipse cx="10" cy="15" rx="1.2" ry="2" transform="rotate(-30 10 15)"></ellipse>
    <ellipse cx="14" cy="15" rx="1.2" ry="2" transform="rotate(30 14 15)"></ellipse>
  </symbol>

  
  <symbol id="di-contains-pork" viewBox="0 0 24 24">
    <path d="M12 4l9 16H3z"></path>
    <circle cx="12" cy="15" r="3"></circle>
    <circle cx="11" cy="14.5" r="0.5" class="fill"></circle>
    <circle cx="13" cy="14.5" r="0.5" class="fill"></circle>
    <ellipse cx="12" cy="16" rx="1" ry="0.6"></ellipse>
  </symbol>

  
  <symbol id="di-contains-alcohol" viewBox="0 0 24 24">
    <path d="M12 4l9 16H3z"></path>
    <path d="M10 11h4l-1.2 4a1 1 0 0 1-1.6 0z"></path>
    <path d="M12 17v1"></path>
  </symbol>

  

  
  <symbol id="di-spice-1" viewBox="0 0 24 24">
    <path d="M14 4c-1 1-2 2-2 4 0 1-2 2-3 4-2 3-3 7 0 9 4 2 9-1 11-5 1-3 0-7-2-9-1-1-3-3-4-3z" class="fill"></path>
    <path d="M14 4c1 0 2 0 3 1" class="soft"></path>
  </symbol>

  <symbol id="di-spice-2" viewBox="0 0 24 24">
    <path d="M9 6c-1 1-1 2-1 3 0 1-1 2-2 3-1 2-1 4 1 5 2 1 5-1 6-3 1-2 1-5-1-7-1-1-2-1-3-1z" class="fill"></path>
    <path d="M18 8c-1 1-1 2-1 3 0 1-1 2-2 3-1 2-1 4 1 5 2 1 5-1 6-3 1-2 1-5-1-7-1-1-2-1-3-1z" class="fill" transform="translate(-3 0)"></path>
    <path d="M9 6c1 0 2 0 3 1" class="soft"></path>
    <path d="M16 8c1 0 2 0 3 1" class="soft" transform="translate(-3 0)"></path>
  </symbol>

  <symbol id="di-spice-3" viewBox="0 0 24 24">
    <g transform="translate(-5 1) scale(0.7)">
      <path d="M14 4c-1 1-2 2-2 4 0 1-2 2-3 4-2 3-3 7 0 9 4 2 9-1 11-5 1-3 0-7-2-9-1-1-3-3-4-3z" class="fill"></path>
    </g>
    <g transform="translate(0 1) scale(0.7)">
      <path d="M14 4c-1 1-2 2-2 4 0 1-2 2-3 4-2 3-3 7 0 9 4 2 9-1 11-5 1-3 0-7-2-9-1-1-3-3-4-3z" class="fill"></path>
    </g>
    <g transform="translate(5 1) scale(0.7)">
      <path d="M14 4c-1 1-2 2-2 4 0 1-2 2-3 4-2 3-3 7 0 9 4 2 9-1 11-5 1-3 0-7-2-9-1-1-3-3-4-3z" class="fill"></path>
    </g>
  </symbol>

  

  
  <symbol id="di-popular" viewBox="0 0 24 24">
    <path d="M12 3c0 4-4 5-4 10a4 4 0 0 0 8 0c0-2-1-3-1-4 2 1 3 3 3 5a6 6 0 0 1-12 0c0-5 6-7 6-11z"></path>
  </symbol>

  
  <symbol id="di-new" viewBox="0 0 24 24">
    <path d="M12 3v6M12 15v6M3 12h6M15 12h6M6 6l4 4M14 14l4 4M18 6l-4 4M10 14l-4 4"></path>
  </symbol>

  
  <symbol id="di-seasonal" viewBox="0 0 24 24">
    <circle cx="12" cy="12" r="4"></circle>
    <path d="M12 2v3M12 19v3M2 12h3M19 12h3M5 5l2 2M17 17l2 2M19 5l-2 2M7 17l-2 2"></path>
  </symbol>

  
  <symbol id="di-chefs-pick" viewBox="0 0 24 24">
    <path d="M6 14c-2 0-3-2-3-4s2-4 4-4c0-2 2-3 4-3 1 0 2 0 3 1 1-1 2-1 3-1 2 0 4 1 4 3 2 0 4 2 4 4s-1 4-3 4z"></path>
    <path d="M6 14v5h12v-5"></path>
    <path d="M9 14v5M12 14v5M15 14v5"></path>
  </symbol>

  
  <symbol id="di-house-special" viewBox="0 0 24 24">
    <path d="M12 3l2.5 6.5L21 12l-6.5 2.5L12 21l-2.5-6.5L3 12l6.5-2.5z" class="fill"></path>
  </symbol>

  

  
  <symbol id="di-hot" viewBox="0 0 24 24">
    <path d="M8 4c-1 2 1 3 0 5s-2 2 0 4"></path>
    <path d="M12 4c-1 2 1 3 0 5s-2 2 0 4"></path>
    <path d="M16 4c-1 2 1 3 0 5s-2 2 0 4"></path>
    <path d="M4 16h16l-1 4H5z"></path>
  </symbol>

  
  <symbol id="di-cold" viewBox="0 0 24 24">
    <path d="M12 2v20M2 12h20M5 5l14 14M19 5L5 19"></path>
    <path d="M9 4l3 2 3-2M9 20l3-2 3 2M4 9l2 3-2 3M20 9l-2 3 2 3"></path>
  </symbol>

  
  <symbol id="di-ice" viewBox="0 0 24 24">
    <path d="M5 8l7-4 7 4v8l-7 4-7-4z"></path>
    <path d="M5 8l7 4 7-4M12 12v8"></path>
  </symbol>

</svg>